<svg width="14" height="8" viewBox="0 0 14 8" fill="none" xmlns="http://www.w3.org/2000/svg">
<path d="M13.8942 3.70199C13.8626 3.66412 13.1064 2.76388 11.8863 1.85585C10.2549 0.641748 8.56521 0 7 0C5.43481 0 3.74516 0.641748 2.11372 1.85585C0.893582 2.76388 0.137444 3.66412 0.105862 3.70199C-0.0352872 3.87123 -0.0352872 4.12877 0.105862 4.29799C0.137444 4.33585 0.893609 5.23609 2.11374 6.14412C3.74516 7.35825 5.43484 8 7 8C8.56519 8 10.2548 7.35825 11.8863 6.14415C13.1064 5.23612 13.8626 4.33588 13.8942 4.29802C14.0353 4.12877 14.0353 3.87123 13.8942 3.70199ZM3.9781 6.29452C2.8733 5.71994 1.81966 4.87793 0.985348 4.00018C1.46865 3.49259 2.56265 2.44373 3.9787 1.70453C3.55673 2.35473 3.30861 3.14652 3.30861 4C3.30859 4.85307 3.55646 5.6445 3.9781 6.29452ZM7 7.11111C5.41822 7.11111 4.1289 5.71674 4.1289 4C4.1289 2.28453 5.41688 0.888889 7 0.888889C8.58195 0.888889 9.8711 2.28344 9.8711 4C9.87113 5.71547 8.58315 7.11111 7 7.11111ZM10.0214 6.29547C10.4433 5.64527 10.6914 4.85348 10.6914 4C10.6914 3.14693 10.4436 2.3555 10.022 1.70548C11.1268 2.28006 12.1804 3.12207 13.0147 3.99982C12.5314 4.50741 11.4374 5.55627 10.0214 6.29547Z" fill="white"/>
<path d="M7 2.5C6.1729 2.5 5.5 3.1729 5.5 4C5.5 4.8271 6.1729 5.5 7 5.5C7.8271 5.5 8.5 4.8271 8.5 4C8.50002 3.1729 7.82712 2.5 7 2.5Z" fill="white"/>
</svg>
