<svg width="12" height="12" viewBox="0 0 12 12" fill="none" xmlns="http://www.w3.org/2000/svg">
<path d="M6 0C2.68352 0 0 2.6838 0 6C0 9.31648 2.6838 12 6 12C9.31648 12 12 9.3162 12 6C12 2.68352 9.3162 0 6 0ZM6 11.2C3.13273 11.2 0.799992 8.8673 0.799992 6C0.799992 3.1327 3.13273 0.799992 6 0.799992C8.86727 0.799992 11.2 3.13273 11.2 6C11.2 8.86727 8.86727 11.2 6 11.2Z" fill="#35AF20"/>
<path d="M9.17643 3.79521C9.02022 3.639 8.76693 3.639 8.61074 3.79521L5.04972 7.35624L3.38988 5.69642C3.23367 5.54021 2.98038 5.54021 2.82419 5.69642C2.66798 5.85263 2.66798 6.10589 2.82419 6.2621L4.76685 8.20477C4.92304 8.36096 5.1764 8.36091 5.33254 8.20477L9.17643 4.36088C9.33264 4.20467 9.33264 3.95142 9.17643 3.79521Z" fill="#35AF20"/>
</svg>
