<svg width="12" height="12" viewBox="0 0 12 12" fill="none" xmlns="http://www.w3.org/2000/svg">
<path d="M11.5616 3.7428C11.2692 3.0191 10.8297 2.34058 10.2445 1.75549C9.65935 1.17028 8.98079 0.730733 8.25709 0.438304C7.53329 0.145781 6.76431 0 5.99568 0C5.22817 0 4.46064 0.146461 3.73839 0.439312C3.01621 0.732069 2.33934 1.17159 1.75551 1.75551C1.17157 2.33936 0.732045 3.01626 0.439312 3.73849C0.146461 4.46071 0 5.22824 0 5.99582C0 6.76442 0.145828 7.53336 0.438304 8.25718C0.730733 8.98086 1.17028 9.6594 1.75549 10.2445C2.34058 10.8297 3.0191 11.2692 3.7428 11.5617C4.46659 11.8541 5.23553 12 6.00414 12C6.77167 12 7.53922 11.8535 8.26152 11.5607C8.98372 11.268 9.66061 10.8285 10.2445 10.2445C10.8284 9.66064 11.268 8.98374 11.5607 8.26152C11.8535 7.53924 12 6.77171 12 6.00414C12 5.23553 11.8541 4.46659 11.5616 3.7428ZM10.819 7.96077C10.5654 8.58615 10.1858 9.17126 9.67854 9.67854C9.17129 10.1857 8.58617 10.5653 7.96079 10.819C7.3355 11.0725 6.6699 11.1996 6.00414 11.1996C5.33671 11.1996 4.66944 11.0729 4.0427 10.8196C3.41589 10.5662 2.82958 10.1866 2.32143 9.67857C1.81336 9.17037 1.43376 8.58409 1.18038 7.95725C0.927069 7.33051 0.800366 6.66322 0.800389 5.99579C0.800366 5.33005 0.92749 4.6645 1.18101 4.03919C1.43463 3.41381 1.81425 2.82869 2.32146 2.32143C2.82871 1.81425 3.41381 1.43463 4.03916 1.18099C4.66443 0.927444 5.32998 0.800319 5.99572 0.800319C6.66317 0.800319 7.33049 0.926998 7.95723 1.18031C8.58406 1.43369 9.1704 1.81329 9.67859 2.32139C10.1867 2.82956 10.5662 3.41585 10.8196 4.04266C11.073 4.6694 11.1997 5.33666 11.1997 6.00409C11.1996 6.66988 11.0725 7.33545 10.819 7.96077Z" fill="#F11C1C"/>
<path d="M6.55289 5.99998L8.491 4.06187C8.64393 3.90894 8.64393 3.66104 8.491 3.50811C8.33809 3.35521 8.09017 3.35521 7.93724 3.50811L5.99913 5.44625L4.06101 3.50814C3.90809 3.35523 3.66019 3.35523 3.50726 3.50814C3.35435 3.66104 3.35435 3.90896 3.50726 4.06189L5.44537 6.00001L3.50726 7.93812C3.35435 8.091 3.35435 8.33895 3.50726 8.49188C3.66019 8.64478 3.90809 8.64478 4.06101 8.49188L5.99913 6.55374L7.93724 8.49185C8.09017 8.64476 8.33807 8.64476 8.491 8.49185C8.64393 8.33895 8.64393 8.09103 8.491 7.9381L6.55289 5.99998Z" fill="#F11C1C"/>
</svg>
