<svg width="18" height="18" viewBox="0 0 18 18" fill="none" xmlns="http://www.w3.org/2000/svg">
<rect width="18" height="18" rx="5" fill="#E4E6FF"/>
<path d="M11.1877 3C11.2781 3 11.3695 3.00492 11.4622 3.01429C12.1294 3.08181 12.7707 3.3938 13.2222 3.86942C13.6747 4.34553 13.9566 5.01781 13.9953 5.71373C14.0367 6.45994 13.8051 7.14159 13.3434 7.63248L9.18726 12.0274C8.56143 12.6923 7.54002 12.6942 6.9105 12.0313C6.60574 11.71 6.43751 11.2827 6.43658 10.8278C6.43565 10.3728 6.60247 9.94452 6.9058 9.6227L9.8154 6.59349C10.0498 6.34806 10.4282 6.35249 10.6588 6.60039C10.8899 6.84882 10.8871 7.24806 10.6523 7.49251L7.74694 10.5172C7.67237 10.5966 7.62901 10.7075 7.62951 10.8253C7.62951 10.9431 7.67329 11.054 7.75205 11.1373C7.83127 11.2206 7.93611 11.2659 8.04745 11.2659H8.04796C8.1593 11.2659 8.26414 11.22 8.3429 11.1363L12.499 6.74138C12.957 6.25441 12.9011 5.31155 12.3806 4.76348C12.1248 4.49438 11.739 4.31005 11.348 4.27012C11.1281 4.24893 10.7143 4.25484 10.4338 4.55254L5.75998 9.45805C5.36063 9.88143 5.16026 10.4926 5.19754 11.1752C5.23482 11.8534 5.50509 12.505 5.93938 12.9624C6.85409 13.9254 8.43609 14.0077 9.25856 13.1339L12.6234 9.56058C12.8559 9.31317 13.2333 9.31317 13.4668 9.55859C13.7003 9.80455 13.7012 10.2038 13.4687 10.4507L10.1038 14.024C8.81868 15.3902 6.47945 15.3109 5.09782 13.8564C4.45803 13.1827 4.06055 12.2319 4.0065 11.2482C3.94918 10.2018 4.27257 9.24911 4.91702 8.56496L9.59078 3.65946C9.99526 3.23017 10.5554 3 11.1877 3Z" fill="#5F63C1"/>
</svg>
